<?xml version="1.0" encoding="UTF-8" standalone="no"?>
<svg
   xmlns:osb="http://www.openswatchbook.org/uri/2009/osb"
   xmlns:dc="http://purl.org/dc/elements/1.1/"
   xmlns:cc="http://creativecommons.org/ns#"
   xmlns:rdf="http://www.w3.org/1999/02/22-rdf-syntax-ns#"
   xmlns:svg="http://www.w3.org/2000/svg"
   xmlns="http://www.w3.org/2000/svg"
   xmlns:sodipodi="http://sodipodi.sourceforge.net/DTD/sodipodi-0.dtd"
   xmlns:inkscape="http://www.inkscape.org/namespaces/inkscape"
   sodipodi:docname="building5.svg"
   inkscape:version="1.0 (4035a4f, 2020-05-01)"
   inkscape:export-ydpi="300"
   inkscape:export-xdpi="300"
   inkscape:export-filename="/Users/josephchristiantinio/Desktop/building1.png"
   id="svg8"
   version="1.1"
   viewBox="0 0 203.19999 268.02292"
   height="1013"
   width="768">
  <defs
     id="defs2">
    <marker
       inkscape:stockid="Arrow1Lend"
       orient="auto"
       refY="0"
       refX="0"
       id="Arrow1Lend"
       style="overflow:visible"
       inkscape:isstock="true">
      <path
         id="path2975"
         d="M 0,0 5,-5 -12.5,0 5,5 Z"
         style="fill-rule:evenodd;stroke:#000000;stroke-width:1pt"
         transform="matrix(-0.8,0,0,-0.8,-10,0)" />
    </marker>
    <linearGradient
       id="linearGradient2960"
       osb:paint="solid">
      <stop
         style="stop-color:#550000;stop-opacity:1;"
         offset="0"
         id="stop2958" />
    </linearGradient>
  </defs>
  <sodipodi:namedview
     inkscape:window-maximized="0"
     inkscape:window-y="25"
     inkscape:window-x="102"
     inkscape:window-height="706"
     inkscape:window-width="1250"
     units="px"
     showgrid="false"
     inkscape:document-rotation="0"
     inkscape:current-layer="layer11"
     inkscape:document-units="mm"
     inkscape:cy="719.70136"
     inkscape:cx="473.57739"
     inkscape:zoom="0.45506056"
     inkscape:pageshadow="2"
     inkscape:pageopacity="0.0"
     borderopacity="1.0"
     bordercolor="#666666"
     pagecolor="#ffffff"
     id="base" />
  <metadata
     id="metadata5">
    <rdf:RDF>
      <cc:Work
         rdf:about="">
        <dc:format>image/svg+xml</dc:format>
        <dc:type
           rdf:resource="http://purl.org/dc/dcmitype/StillImage" />
        <dc:title></dc:title>
      </cc:Work>
    </rdf:RDF>
  </metadata>
  <g
     inkscape:groupmode="layer"
     id="layer11"
     inkscape:label="Layer 2">
    <g
       transform="matrix(0.35277777,0,0,0.35277777,-324.11555,262.98426)"
       id="g922">
      <g
         style="fill:#000000;fill-opacity:1"
         id="g837"
         stroke="none"
         fill="#000000"
         transform="matrix(2.56451e-4,0.03567913,0.01979939,-4.1425174e-4,915.65309,-421.49427)">
        <path
           style="fill:#000000;fill-opacity:1"
           id="path835"
           d="m 5489,7190 c -113,-21 -216,-43 -227,-49 -27,-14 -28,-46 -6,-161 8,-45 14,-83 12,-85 -2,-1 -70,-14 -152,-29 -82,-15 -157,-31 -167,-37 -18,-9 -19,-42 -19,-906 v -896 l -114,6 c -136,8 -146,3 -146,-74 0,-45 -2,-49 -23,-49 -38,0 -57,-30 -57,-88 v -52 h -57 c -67,0 -117,-21 -147,-63 -21,-28 -21,-36 -24,-963 -2,-817 -4,-934 -17,-934 -12,0 -15,14 -15,59 0,38 -5,63 -14,70 -10,8 -95,11 -300,9 l -286,-3 -2,740 c -3,616 -5,745 -17,768 -20,39 -68,65 -134,73 l -57,7 v 51 c 0,29 -5,57 -12,64 -8,8 -64,12 -185,12 h -172 l -3,653 c -3,604 -4,655 -21,680 -27,41 -61,58 -127,64 l -60,6 v 59 c 0,54 -2,59 -26,68 -14,6 -140,10 -282,10 -304,0 -302,0 -302,-84 v -53 l -71,-5 c -49,-4 -79,-12 -97,-25 -57,-42 -57,-36 -60,-570 l -3,-493 h -124 c -143,0 -145,-1 -145,-91 0,-35 -3,-50 -10,-43 -5,5 -11,90 -12,189 l -3,180 -508,3 -507,2 -10,-26 c -6,-16 -10,-602 -10,-1614 V 1981 l -97,-3 -98,-3 -3,-988 -2,-987 h 5875 5875 l -2,1857 -3,1858 -500,6 c -275,3 -508,2 -517,-3 -17,-8 -18,-44 -18,-548 v -540 h -167 c -93,0 -174,-4 -182,-9 -8,-5 -16,-32 -19,-65 l -4,-56 h -37 c -69,-1 -115,-17 -146,-53 l -30,-35 v 785 c 0,765 0,785 -19,799 -14,10 -49,14 -116,14 h -97 l -6,872 c -4,479 -7,1008 -7,1174 0,290 -1,304 -19,314 -13,6 -184,10 -487,10 h -467 l -199,-35 c -109,-19 -207,-41 -218,-47 -24,-15 -25,-44 -6,-143 8,-38 13,-71 12,-73 -2,-1 -54,-11 -117,-23 -149,-26 -177,-36 -185,-62 -4,-12 -5,-267 -3,-567 l 4,-545 -65,-3 c -35,-2 -70,-8 -77,-14 -10,-8 -13,-103 -13,-444 0,-283 -3,-434 -10,-434 -6,0 -10,56 -10,149 0,113 -3,151 -14,160 -9,8 -153,10 -517,9 l -504,-3 -3,-397 -2,-398 h -100 -100 v 758 759 l -21,19 c -20,18 -36,19 -260,16 l -239,-4 v 1066 c 0,1053 0,1066 -20,1086 -20,20 -33,20 -567,19 l -548,-1 z" />
      </g>
    </g>
  </g>
  <g
     id="layer1"
     inkscape:groupmode="layer"
     inkscape:label="Layer 1" />
</svg>
