<?xml version="1.0" encoding="UTF-8" standalone="no"?>
<svg
   xmlns:osb="http://www.openswatchbook.org/uri/2009/osb"
   xmlns:dc="http://purl.org/dc/elements/1.1/"
   xmlns:cc="http://creativecommons.org/ns#"
   xmlns:rdf="http://www.w3.org/1999/02/22-rdf-syntax-ns#"
   xmlns:svg="http://www.w3.org/2000/svg"
   xmlns="http://www.w3.org/2000/svg"
   xmlns:sodipodi="http://sodipodi.sourceforge.net/DTD/sodipodi-0.dtd"
   xmlns:inkscape="http://www.inkscape.org/namespaces/inkscape"
   sodipodi:docname="building4.svg"
   inkscape:version="1.0 (4035a4f, 2020-05-01)"
   inkscape:export-ydpi="300"
   inkscape:export-xdpi="300"
   inkscape:export-filename="/Users/josephchristiantinio/Desktop/building1.png"
   id="svg8"
   version="1.1"
   viewBox="0 0 84.666664 401.9021"
   height="1519"
   width="320">
  <defs
     id="defs2">
    <marker
       inkscape:stockid="Arrow1Lend"
       orient="auto"
       refY="0"
       refX="0"
       id="Arrow1Lend"
       style="overflow:visible"
       inkscape:isstock="true">
      <path
         id="path2975"
         d="M 0,0 5,-5 -12.5,0 5,5 Z"
         style="fill-rule:evenodd;stroke:#000000;stroke-width:1pt"
         transform="matrix(-0.8,0,0,-0.8,-10,0)" />
    </marker>
    <linearGradient
       id="linearGradient2960"
       osb:paint="solid">
      <stop
         style="stop-color:#550000;stop-opacity:1;"
         offset="0"
         id="stop2958" />
    </linearGradient>
  </defs>
  <sodipodi:namedview
     inkscape:window-maximized="0"
     inkscape:window-y="25"
     inkscape:window-x="166"
     inkscape:window-height="734"
     inkscape:window-width="1250"
     units="px"
     showgrid="false"
     inkscape:document-rotation="0"
     inkscape:current-layer="g890"
     inkscape:document-units="mm"
     inkscape:cy="526.24392"
     inkscape:cx="-109.98264"
     inkscape:zoom="0.27706587"
     inkscape:pageshadow="2"
     inkscape:pageopacity="0.0"
     borderopacity="1.0"
     bordercolor="#666666"
     pagecolor="#ffffff"
     id="base" />
  <metadata
     id="metadata5">
    <rdf:RDF>
      <cc:Work
         rdf:about="">
        <dc:format>image/svg+xml</dc:format>
        <dc:type
           rdf:resource="http://purl.org/dc/dcmitype/StillImage" />
        <dc:title></dc:title>
      </cc:Work>
    </rdf:RDF>
  </metadata>
  <g
     inkscape:groupmode="layer"
     id="layer8"
     inkscape:label="Layer 2">
    <g
       transform="matrix(3.548468,0,0,3.9606709,52.26697,188.63587)"
       id="g890"
       style="clip-rule:evenodd;fill-rule:evenodd">
      <path
         id="path879-9"
         d="m -1.1574266,-35.015164 0.00465,-0.717345 0.9415839,0.0044 0.0046,-0.717345 1.7428722,0.0081 1.2487159,-2.504963 5.9696428,0.02782 0.00233,-0.358673 0.4707921,0.0022 -0.055481,8.608141 -0.470792,-0.0022 0.00233,-0.358672 -5.1787131,-0.02414 0.013869,-2.152035 -3.7663361,-0.01755 0.00465,-0.717345 -0.9415839,-0.0044 0.00465,-0.717345 -0.9415853,-0.0044 0.0023,-0.358673 z m 1.4193115,-1.069435 -0.016179,2.510708 8.4742565,0.03949 0.00233,-0.358672 -0.9415839,-0.0044 0.011556,-1.793363 0.9415845,0.0044 0.00233,-0.358673 z m 7.9988406,0.754646 -0.00693,1.076018 0.4707919,0.0022 0.00693,-1.076018 z m 0.4892861,-2.867186 0.00233,-0.358673 -5.6433835,-0.0263 -1.0698572,2.147114 6.6993705,0.03122 0.00233,-0.358672 -0.9415845,-0.0044 0.00925,-1.43469 z m -4.7402849,4.999473 -0.011558,1.793364 4.70792,0.02194 0.00233,-0.358672 -0.9415839,-0.0044 0.00693,-1.076017 0.9415839,0.0044 0.00233,-0.358673 z m 4.2325046,0.737093 -0.00233,0.358672 0.470792,0.0022 0.00233,-0.358672 z m 0.034678,-5.380088 -0.00465,0.717345 0.4707925,0.0022 0.00465,-0.717345 z m -2.3909479,5.72779 0.9415839,0.0044 -0.00232,0.358672 -0.9415839,-0.0044 z m 0.00462,-0.717345 0.9415837,0.0044 -0.00232,0.358674 -0.9415844,-0.0044 z m -4.6963615,-1.815304 5.6495037,0.02633 -0.00233,0.358674 -5.6495042,-0.02633 z m 5.2018297,-3.56259 0.4707922,0.0022 -0.00925,1.43469 -0.4707923,-0.0022 z m -5.1972062,2.845245 5.6495047,0.02633 -0.00233,0.358672 -5.6495044,-0.02633 z m 4.2556226,-2.849633 0.4707922,0.0022 -0.00925,1.43469 -0.4707919,-0.0022 z m -0.9808845,6.093045 0.9415845,0.0044 -0.00232,0.358673 -0.9415841,-0.0044 z m 0.00462,-0.717345 0.941584,0.0044 -0.00232,0.358672 -0.9415844,-0.0044 z m 0.034676,-5.380089 0.4707921,0.0022 -0.00925,1.43469 -0.4707921,-0.0022 z m -0.941584,-0.0044 0.4707917,0.0022 -0.00925,1.43469 -0.4707917,-0.0022 z m -4.25562206,2.849633 -0.00693,1.076018 0.47079126,0.0022 0.00693,-1.076018 z"
         style="clip-rule:evenodd;fill-rule:evenodd;stroke-width:0.410933" />
      <path
         style="clip-rule:evenodd;fill-rule:evenodd;stroke-width:0.410933"
         d="m -1.1019454,-43.623306 0.00465,-0.717345 0.9415836,0.0044 0.0046,-0.717345 1.7428725,0.0081 1.2487159,-2.504964 5.9696432,0.02782 0.00233,-0.358673 0.470792,0.0022 -0.055481,8.608142 -0.4707927,-0.0022 0.00233,-0.358672 -5.1787129,-0.02414 0.013869,-2.152035 -3.7663361,-0.01755 0.00465,-0.717345 -0.9415841,-0.0044 0.00465,-0.717345 -0.9415851,-0.0044 0.0023,-0.358672 z m 1.4193112,-1.069435 -0.016179,2.510708 8.4742571,0.03949 0.00233,-0.358672 -0.9415842,-0.0044 0.011556,-1.793363 0.9415847,0.0044 0.00233,-0.358673 z m 7.998841,0.754646 -0.00693,1.076018 0.4707921,0.0022 0.00693,-1.076018 z m 0.4892863,-2.867187 0.00233,-0.358672 -5.6433838,-0.0263 -1.0698573,2.147114 6.6993709,0.03123 0.00233,-0.358672 -0.9415847,-0.0044 0.00925,-1.434691 z m -4.7402854,4.999475 -0.011558,1.793363 4.7079198,0.02194 0.00233,-0.358672 -0.9415836,-0.0044 0.00693,-1.076017 0.9415841,0.0044 0.00233,-0.358673 z m 4.2325049,0.737093 -0.00233,0.358672 0.4707915,0.0022 0.00233,-0.358673 z m 0.034678,-5.380089 -0.00465,0.717345 0.4707921,0.0022 0.00465,-0.717345 z m -2.3909478,5.72779 0.9415839,0.0044 -0.00233,0.358673 -0.9415844,-0.0044 z m 0.00462,-0.717344 0.9415839,0.0044 -0.00233,0.358673 -0.9415848,-0.0044 z m -4.6963618,-1.815305 5.6495042,0.02633 -0.00233,0.358673 -5.6495045,-0.02633 z m 5.2018298,-3.56259 0.4707926,0.0022 -0.00925,1.434691 -0.4707921,-0.0022 z m -5.1972062,2.845245 5.6495052,0.02633 -0.00233,0.358672 -5.6495047,-0.02633 z m 4.2556227,-2.849634 0.4707923,0.0022 -0.00925,1.43469 -0.4707918,-0.0022 z m -0.9808847,6.093047 0.9415846,0.0044 -0.00232,0.358672 -0.9415841,-0.0044 z m 0.00462,-0.717346 0.9415842,0.0044 -0.00232,0.358673 -0.9415842,-0.0044 z m 0.034676,-5.380089 0.4707923,0.0022 -0.00925,1.434691 -0.4707923,-0.0022 z m -0.9415838,-0.0044 0.4707915,0.0022 -0.00925,1.434691 -0.4707919,-0.0022 z m -4.2556222,2.849634 -0.00693,1.076017 0.470791,0.0022 0.00693,-1.076018 z"
         id="path879-9-3" />
    </g>
  </g>
  <g
     id="layer1"
     inkscape:groupmode="layer"
     inkscape:label="Layer 1" />
</svg>
